<svg width="2038" height="1217" viewBox="0 0 2038 1217" fill="none" xmlns="http://www.w3.org/2000/svg">
<g clip-path="url(#clip0_96_308)">
<rect width="2038" height="1217" fill="#2A2A2A"/>
<path d="M2958.86 378.361C2990.22 418.117 1711.51 246.435 1235.76 621.741C759.999 997.047 1046.72 1675.12 1015.36 1635.36C983.993 1595.61 646.428 853.079 1122.18 477.772C1597.94 102.466 2927.49 338.605 2958.86 378.361Z" fill="#B55629"/>
<path d="M3068.5 418C3099.86 457.756 1825.08 390.404 1349.33 765.71C873.571 1141.02 1078.86 1804.76 1047.5 1765C1016.14 1725.24 759.999 997.047 1235.76 621.741C1711.51 246.435 3037.14 378.244 3068.5 418Z" fill="#DD992B"/>
<path d="M2995.38 485.054C3019.31 515.38 1886.62 508.491 1417.54 878.537C948.447 1248.58 1147.92 1804.83 1124 1774.5C1100.08 1744.17 861.814 1138.76 1330.9 768.717C1799.99 398.671 2971.46 454.728 2995.38 485.054Z" fill="#647A67"/>
<path d="M3084.98 522.704C3108.9 553.03 1973.26 618.311 1504.17 988.357C1035.08 1358.4 1167.51 1904.29 1143.58 1873.96C1119.66 1843.64 948.447 1248.58 1417.54 878.537C1886.62 508.491 3061.05 492.378 3084.98 522.704Z" fill="#3E4578"/>
<path d="M187.055 675V657.545H197.589V659.42H189.169V665.318H197.044V667.193H189.169V673.125H197.725V675H187.055ZM201.126 675V661.909H203.069V663.955H203.24C203.512 663.256 203.953 662.713 204.561 662.327C205.169 661.935 205.899 661.739 206.751 661.739C207.615 661.739 208.333 661.935 208.907 662.327C209.487 662.713 209.939 663.256 210.262 663.955H210.399C210.734 663.278 211.237 662.741 211.907 662.344C212.578 661.94 213.382 661.739 214.319 661.739C215.49 661.739 216.447 662.105 217.191 662.838C217.936 663.565 218.308 664.699 218.308 666.239V675H216.297V666.239C216.297 665.273 216.032 664.582 215.504 664.168C214.975 663.753 214.353 663.545 213.637 663.545C212.717 663.545 212.004 663.824 211.498 664.381C210.993 664.932 210.74 665.631 210.74 666.477V675H208.694V666.034C208.694 665.29 208.453 664.69 207.97 664.236C207.487 663.776 206.865 663.545 206.103 663.545C205.581 663.545 205.092 663.685 204.637 663.963C204.189 664.241 203.825 664.628 203.547 665.122C203.274 665.611 203.137 666.176 203.137 666.818V675H201.126ZM225.838 675.307C225.008 675.307 224.255 675.151 223.579 674.838C222.903 674.52 222.366 674.062 221.968 673.466C221.571 672.864 221.372 672.136 221.372 671.284C221.372 670.534 221.52 669.926 221.815 669.46C222.11 668.989 222.505 668.619 223 668.352C223.494 668.085 224.039 667.886 224.636 667.756C225.238 667.619 225.843 667.511 226.451 667.432C227.247 667.33 227.892 667.253 228.386 667.202C228.886 667.145 229.25 667.051 229.477 666.92C229.71 666.79 229.826 666.562 229.826 666.239V666.17C229.826 665.33 229.596 664.676 229.136 664.21C228.681 663.744 227.991 663.511 227.065 663.511C226.105 663.511 225.352 663.722 224.806 664.142C224.261 664.562 223.877 665.011 223.656 665.489L221.747 664.807C222.088 664.011 222.542 663.392 223.11 662.949C223.684 662.5 224.309 662.187 224.985 662.011C225.667 661.83 226.338 661.739 226.997 661.739C227.417 661.739 227.9 661.79 228.446 661.892C228.997 661.989 229.528 662.19 230.039 662.497C230.556 662.804 230.985 663.267 231.326 663.886C231.667 664.506 231.838 665.335 231.838 666.375V675H229.826V673.227H229.724C229.588 673.511 229.36 673.815 229.042 674.139C228.724 674.463 228.301 674.739 227.772 674.966C227.244 675.193 226.599 675.307 225.838 675.307ZM226.145 673.5C226.94 673.5 227.61 673.344 228.156 673.031C228.707 672.719 229.122 672.315 229.4 671.821C229.684 671.327 229.826 670.807 229.826 670.261V668.42C229.741 668.523 229.554 668.616 229.264 668.702C228.98 668.781 228.65 668.852 228.275 668.915C227.906 668.972 227.545 669.023 227.193 669.068C226.846 669.108 226.565 669.142 226.349 669.17C225.826 669.239 225.338 669.349 224.883 669.503C224.434 669.651 224.071 669.875 223.792 670.176C223.52 670.472 223.383 670.875 223.383 671.386C223.383 672.085 223.642 672.614 224.159 672.972C224.681 673.324 225.343 673.5 226.145 673.5ZM235.509 675V661.909H237.52V675H235.509ZM236.532 659.727C236.14 659.727 235.801 659.594 235.517 659.327C235.239 659.06 235.1 658.739 235.1 658.364C235.1 657.989 235.239 657.668 235.517 657.401C235.801 657.134 236.14 657 236.532 657C236.924 657 237.259 657.134 237.537 657.401C237.821 657.668 237.963 657.989 237.963 658.364C237.963 658.739 237.821 659.06 237.537 659.327C237.259 659.594 236.924 659.727 236.532 659.727ZM243.216 657.545V675H241.204V657.545H243.216Z" fill="#2A2A2A"/>
</g>
<defs>
<clipPath id="clip0_96_308">
<rect width="2038" height="1217" fill="white"/>
</clipPath>
</defs>
</svg>
